<svg xmlns="http://www.w3.org/2000/svg"  viewBox="0 0 58 58" width="47px" height="47px"><path fill="#28384c" d="M53.996,56H4.004C2.897,56,2,55.103,2,53.996V3.004C2,1.897,2.897,1,4.004,1h49.992 C55.103,1,56,1.897,56,3.004v50.992C56,55.103,55.103,56,53.996,56z"/><rect width="20" height="18" x="19" y="20" fill="#28384c"/><path fill="#28384c" d="M20,20H0V2.004C0,0.897,0.897,0,2.004,0H20V20z"/><path fill="#28384c" d="M58,20H38V0h17.996C57.103,0,58,0.897,58,2.004V20z"/><rect width="18" height="20" x="20" fill="#e7eced"/><path fill="#28384c" d="M20,58H2.004C0.897,58,0,57.103,0,55.996V38h20V58z"/><path fill="#28384c" d="M55.996,58H38V38h20v17.996C58,57.103,57.103,58,55.996,58z"/><rect width="18" height="20" x="20" y="38" fill="#e7eced"/><path fill="#dd352e" d="M24,54c-0.256,0-0.512-0.098-0.707-0.293c-0.391-0.391-0.391-1.023,0-1.414l10-10 c0.39-0.391,1.024-0.391,1.414,0c0.391,0.391,0.391,1.023,0,1.414l-10,10C24.512,53.902,24.256,54,24,54z"/><path fill="#dd352e" d="M34,54c-0.256,0-0.512-0.098-0.707-0.293l-10-10c-0.391-0.391-0.391-1.023,0-1.414 c0.39-0.391,1.024-0.391,1.414,0l10,10c0.391,0.391,0.391,1.023,0,1.414C34.512,53.902,34.256,54,34,54z"/><rect width="20" height="18" y="20" fill="#e7eced"/><rect width="20" height="18" x="38" y="20" fill="#e7eced"/><path fill="#366db6" d="M29,35c-3.308,0-6-2.691-6-6s2.692-6,6-6s6,2.691,6,6S32.308,35,29,35z M29,25c-2.206,0-4,1.794-4,4 s1.794,4,4,4s4-1.794,4-4S31.206,25,29,25z"/><path fill="#366db6" d="M29,16c-3.308,0-6-2.691-6-6s2.692-6,6-6s6,2.691,6,6S32.308,16,29,16z M29,6c-2.206,0-4,1.794-4,4 s1.794,4,4,4s4-1.794,4-4S31.206,6,29,6z"/><path fill="#366db6" d="M48,35c-3.308,0-6-2.691-6-6s2.692-6,6-6s6,2.691,6,6S51.308,35,48,35z M48,25c-2.206,0-4,1.794-4,4 s1.794,4,4,4s4-1.794,4-4S50.206,25,48,25z"/><path fill="#366db6" d="M10,54c-3.308,0-6-2.691-6-6s2.692-6,6-6s6,2.691,6,6S13.308,54,10,54z M10,44c-2.206,0-4,1.794-4,4 s1.794,4,4,4s4-1.794,4-4S12.206,44,10,44z"/><path fill="#dd352e" d="M43,54c-0.256,0-0.512-0.098-0.707-0.293c-0.391-0.391-0.391-1.023,0-1.414l10-10 c0.39-0.391,1.024-0.391,1.414,0c0.391,0.391,0.391,1.023,0,1.414l-10,10C43.512,53.902,43.256,54,43,54z"/><path fill="#dd352e" d="M53,54c-0.256,0-0.512-0.098-0.707-0.293l-10-10c-0.391-0.391-0.391-1.023,0-1.414 c0.39-0.391,1.024-0.391,1.414,0l10,10c0.391,0.391,0.391,1.023,0,1.414C53.512,53.902,53.256,54,53,54z"/><path fill="#dd352e" d="M5,16c-0.256,0-0.512-0.098-0.707-0.293c-0.391-0.391-0.391-1.023,0-1.414l10-10 c0.39-0.391,1.024-0.391,1.414,0c0.391,0.391,0.391,1.023,0,1.414l-10,10C5.512,15.902,5.256,16,5,16z"/><path fill="#dd352e" d="M15,16c-0.256,0-0.512-0.098-0.707-0.293l-10-10c-0.391-0.391-0.391-1.023,0-1.414 c0.39-0.391,1.024-0.391,1.414,0l10,10c0.391,0.391,0.391,1.023,0,1.414C15.512,15.902,15.256,16,15,16z"/><path fill="#dd352e" d="M43,16c-0.256,0-0.512-0.098-0.707-0.293c-0.391-0.391-0.391-1.023,0-1.414l10-10 c0.39-0.391,1.024-0.391,1.414,0c0.391,0.391,0.391,1.023,0,1.414l-10,10C43.512,15.902,43.256,16,43,16z"/><path fill="#dd352e" d="M53,16c-0.256,0-0.512-0.098-0.707-0.293l-10-10c-0.391-0.391-0.391-1.023,0-1.414 c0.39-0.391,1.024-0.391,1.414,0l10,10c0.391,0.391,0.391,1.023,0,1.414C53.512,15.902,53.256,16,53,16z"/><path fill="#dd352e" d="M5,35c-0.256,0-0.512-0.098-0.707-0.293c-0.391-0.391-0.391-1.023,0-1.414l10-10 c0.39-0.391,1.024-0.391,1.414,0c0.391,0.391,0.391,1.023,0,1.414l-10,10C5.512,34.902,5.256,35,5,35z"/><path fill="#dd352e" d="M15,35c-0.256,0-0.512-0.098-0.707-0.293l-10-10c-0.391-0.391-0.391-1.023,0-1.414 c0.39-0.391,1.024-0.391,1.414,0l10,10c0.391,0.391,0.391,1.023,0,1.414C15.512,34.902,15.256,35,15,35z"/></svg>